<?xml version="1.0" encoding="utf-8"?>
<!-- Generator: Adobe Illustrator 15.1.0, SVG Export Plug-In . SVG Version: 6.00 Build 0)  -->
<!DOCTYPE svg PUBLIC "-//W3C//DTD SVG 1.1//EN" "http://www.w3.org/Graphics/SVG/1.1/DTD/svg11.dtd">
<svg version="1.1" id="Layer_1" xmlns="http://www.w3.org/2000/svg" xmlns:xlink="http://www.w3.org/1999/xlink" x="0px" y="0px"
	 width="425.197px" height="283.465px" viewBox="0 0 425.197 283.465" enable-background="new 0 0 425.197 283.465"
	 xml:space="preserve">
<g>
	<defs>
		<rect id="SVGID_1_" x="-116.402" y="-187.268" width="658" height="658"/>
	</defs>
	<clipPath id="SVGID_2_">
		<use xlink:href="#SVGID_1_"  overflow="visible"/>
	</clipPath>
	<rect x="-116.402" y="-187.268" display="none" clip-path="url(#SVGID_2_)" fill="#0071BC" width="658" height="658"/>
	<g clip-path="url(#SVGID_2_)">
		<g opacity="0.3">
			<path d="M90.45,66.882c-0.543,8.583-0.814,17.01-0.814,25.282c0,6.369,0.759,10.524,2.278,12.466s3.7,2.912,6.544,2.912
				c2.063,0,4.342-0.756,6.835-2.269c0.895-0.542,1.439-0.814,1.634-0.814c0.504,0,0.756,0.272,0.756,0.814
				c0,0.931-1.38,2.405-4.142,4.421s-6.144,3.025-10.149,3.025c-3.966,0-6.941-1.378-8.924-4.136
				c-1.983-2.756-2.975-6.872-2.975-12.347c0-5.708,0.349-15.492,1.047-29.354c-0.272-0.077-2.114-0.212-5.526-0.407l-3.49-0.232
				c-0.854-0.038-1.28-0.328-1.28-0.87c0-0.503,0.482-0.909,1.449-1.219c1.584-0.58,4.25-2.281,7.998-5.104
				c3.749-2.823,5.932-6.806,6.549-11.95c0.158-1.353,0.596-2.03,1.312-2.03c0.715,0,1.074,0.542,1.074,1.624
				c0,0.348-0.02,0.715-0.058,1.102c-0.117,1.507-0.175,3.246-0.175,5.217l0.058,9.043l12.739-0.175
				c2.171,0,3.296,0.253,3.374,0.756c-0.039,1.784-0.33,2.908-0.873,3.374C103.673,66.009,98.593,66.3,90.45,66.882z"/>
			<path d="M113.136,87.212c0-6.817,2.462-12.822,7.387-18.012c4.924-5.19,10.974-7.786,18.148-7.786
				c6.748,0,12.555,2.324,17.421,6.972c4.866,4.648,7.3,10.458,7.3,17.431c0,7.05-2.56,13.238-7.678,18.563
				c-5.119,5.326-11.091,7.989-17.916,7.989c-6.748,0-12.545-2.45-17.392-7.35C115.559,100.12,113.136,94.184,113.136,87.212z
				 M122.559,86.863c0,6.662,1.542,12.2,4.624,16.615c3.083,4.416,6.893,6.623,11.43,6.623c4.149,0,7.804-2.071,10.965-6.216
				c3.16-4.145,4.741-9.644,4.741-16.5c0-6.119-1.522-11.57-4.566-16.354c-3.044-4.782-6.99-7.174-11.837-7.174
				c-4.499,0-8.183,2.178-11.052,6.536C123.993,74.75,122.559,80.241,122.559,86.863z"/>
			<path d="M187.358,61.475c0.465,1.484,0.698,2.851,0.698,4.1c-0.04,1.836-0.098,3.69-0.175,5.564
				c2.87-3.222,5.778-5.628,8.725-7.221c2.947-1.591,5.934-2.387,8.958-2.387c2.753,0,5.312,0.661,7.678,1.98
				c2.365,1.32,4.518,3.3,6.457,5.94c2.754-2.698,5.535-4.712,8.348-6.042c2.811-1.33,5.633-1.995,8.463-1.995
				c3.762,0,6.893,0.778,9.395,2.333c2.502,1.555,4.062,3.275,4.682,5.161c0.621,1.886,0.932,5.316,0.932,10.291l-0.291,21.925
				c0,3.188,0.32,5.355,0.959,6.502c0.641,1.147,1.949,1.719,3.928,1.719c1.318,0,1.977,0.349,1.977,1.047
				c0,0.737-1.066,1.105-3.199,1.105h-17.857c-1.744,0-2.617-0.349-2.617-1.047c0-0.62,0.504-0.969,1.512-1.047
				c3.18-0.154,5.158-0.881,5.934-2.181c0.775-1.299,1.164-8.289,1.164-20.97c0-5.933-0.225-10.208-0.67-12.826
				c-0.445-2.617-1.502-4.76-3.17-6.427c-1.668-1.667-3.723-2.501-6.166-2.501c-2.133,0-4.207,0.646-6.223,1.938
				c-2.018,1.292-3.977,3.248-5.875,5.869c-1.553,5.086-2.328,14.036-2.328,26.849c0,4.504,0.359,7.348,1.076,8.532
				c0.717,1.185,2.299,1.776,4.74,1.776h0.99c1.24,0,1.861,0.33,1.861,0.989c0,0.698-0.777,1.047-2.326,1.047h-19.604
				c-1.978,0-2.967-0.368-2.967-1.105c0-0.736,0.562-1.105,1.687-1.105c2.365,0,3.964-0.494,4.799-1.483
				c0.833-0.989,1.396-3.829,1.687-8.521c0.291-4.691,0.436-9.326,0.436-13.902c0-8.26-0.805-13.688-2.414-16.287
				c-1.609-2.598-3.946-3.897-7.009-3.897c-2.637,0-5.245,1.047-7.823,3.141c-2.58,2.094-4.314,4.925-5.206,8.492
				c-0.893,3.568-1.338,9.851-1.338,18.847c0,6.36,0.31,10.248,0.931,11.663c0.62,1.416,2.152,2.123,4.595,2.123
				c0.969,0,1.561,0.059,1.774,0.175c0.213,0.116,0.32,0.427,0.32,0.931c0,0.621-0.756,0.931-2.269,0.931h-18.032
				c-2.133,0-3.2-0.368-3.2-1.105c0-0.659,0.387-1.008,1.164-1.047c2.094-0.078,3.519-0.477,4.275-1.197s1.309-2.842,1.658-6.365
				c0.349-3.523,0.523-9.256,0.523-17.198c0-7.941-0.049-12.75-0.145-14.424c-0.098-1.674-0.669-3.017-1.716-4.029
				c-1.047-1.013-2.831-1.538-5.352-1.577c-1.009-0.037-1.512-0.377-1.512-1.02c0-0.415,0.135-0.707,0.407-0.877
				c0.271-0.17,2.026-0.42,5.264-0.75c3.237-0.329,6.098-0.495,8.58-0.495C185.07,61.414,186.04,61.435,187.358,61.475z"/>
			<path d="M294.387,104.052c-1.9,2.754-4.169,4.819-6.806,6.195s-5.623,2.065-8.958,2.065c-3.917,0-6.989-1.047-9.219-3.142
				c-2.23-2.095-3.345-4.85-3.345-8.264c0-2.559,0.669-4.945,2.007-7.156c1.338-2.211,2.869-3.802,4.595-4.772
				c1.726-0.97,4.76-2.192,9.104-3.666c6.204-2.056,9.927-3.762,11.168-5.12c1.241-1.357,1.861-3.125,1.861-5.304
				c0-3.462-0.814-6.157-2.442-8.083c-1.629-1.926-3.937-2.889-6.922-2.889c-2.443,0-4.286,0.545-5.526,1.636
				c-1.241,1.13-2.191,3.33-2.851,6.602c-0.698,3.583-2.23,5.374-4.595,5.374c-0.854,0-1.795-0.426-2.821-1.28
				c-1.028-0.853-1.542-2.113-1.542-3.781c0-2.909,1.609-5.439,4.828-7.591c3.219-2.152,7.64-3.228,13.263-3.228
				c4.459,0,8.017,0.631,10.674,1.893c2.655,1.262,4.323,2.708,5.002,4.339c0.679,1.631,1.019,4.775,1.019,9.434l-0.35,15.376
				c0,5.94,0.358,10.163,1.076,12.667c0.718,2.505,2.045,3.756,3.985,3.756c0.387,0,0.931-0.058,1.628-0.175l0.989-0.116
				c0.892,0,1.338,0.325,1.338,0.972c0,1.485-3.82,2.228-11.459,2.228c-2.211,0-3.694-0.514-4.45-1.542
				C294.882,109.452,294.465,107.309,294.387,104.052z M294.387,81.366c-1.163,1.513-3.801,3.355-7.91,5.526
				c-4.072,2.094-7.001,4.092-8.784,5.991c-1.783,1.939-2.675,4.266-2.675,6.98c0,2.443,0.727,4.518,2.181,6.224
				c1.454,1.707,3.267,2.56,5.438,2.56c2.249,0,4.363-0.688,6.341-2.065c1.978-1.376,3.441-3.131,4.392-5.265
				c0.95-2.132,1.425-5.293,1.425-9.481C294.794,88.695,294.659,85.205,294.387,81.366z"/>
			<path d="M354.069,96.114c0,4.49-1.665,8.351-4.993,11.583c-3.33,3.232-7.277,4.847-11.845,4.847
				c-2.711,0-5.942-0.873-9.697-2.617c-2.052-0.931-3.271-1.396-3.657-1.396c-0.659,0-1.239,0.407-1.742,1.222
				c-0.634,1.086-1.227,1.629-1.78,1.629c-0.476,0-0.772-0.553-0.891-1.658c-0.119-1.105-0.198-3.616-0.237-7.533
				c-0.039-3.374-0.098-5.545-0.175-6.515c0-1.434,0.378-2.152,1.136-2.152c0.438,0,0.776,0.369,1.017,1.105
				c1.505,4.42,3.619,8.172,6.34,11.255c2.722,3.083,5.916,4.625,9.585,4.625c2.586,0,4.883-0.805,6.891-2.414
				c2.007-1.609,3.011-3.79,3.011-6.544c0-4.265-3.695-8.046-11.085-11.343c-5.07-2.269-8.455-3.926-10.158-4.975
				c-1.703-1.048-3.038-2.465-4.005-4.251s-1.451-3.728-1.451-5.823c0-3.999,1.516-7.347,4.547-10.046
				c3.03-2.697,6.702-4.047,11.016-4.047c3.187,0,6.684,0.989,10.492,2.966c0.621,0.311,1.165,0.465,1.631,0.465
				c0.389,0,0.815-0.32,1.283-0.96c0.452-0.6,0.812-0.901,1.075-0.901c0.341,0,0.604,0.146,0.793,0.438
				c0.189,0.293,0.4,2.005,0.633,5.139s0.349,5.712,0.349,7.737c0,1.246-0.33,1.869-0.988,1.869c-0.582,0-1.048-0.56-1.396-1.681
				c-0.311-1.042-1.241-3.031-2.792-5.967c-1.552-2.936-3.248-4.809-5.09-5.62s-3.655-1.217-5.438-1.217
				c-2.792,0-5.081,0.678-6.864,2.032c-1.784,1.355-2.676,3.116-2.676,5.284c0,1.355,0.368,2.575,1.105,3.658
				c0.736,1.083,1.425,1.896,2.065,2.438c0.64,0.542,4.333,2.334,11.081,5.376c4.188,1.897,6.94,3.358,8.26,4.383
				c1.317,1.025,2.423,2.41,3.315,4.151C353.623,92.399,354.069,94.218,354.069,96.114z"/>
		</g>
		<g>
			<path fill="#FFFFFF" d="M62.371,218.844h-2.709c-1.439-4.623-3.705-10.93-6.796-18.921l-8.68-22.364
				c-2.694-6.919-4.569-11.235-5.625-12.95c-1.057-1.715-2.09-2.878-3.1-3.49s-2.434-0.995-4.271-1.148
				c-0.766-0.062-1.148-0.337-1.148-0.827c0-0.581,0.382-0.872,1.148-0.872h24.064c1.5,0,2.25,0.261,2.25,0.78
				c0,0.674-0.49,1.011-1.47,1.011c-4.041,0-6.062,1.73-6.062,5.189c0,0.826,0.184,2.144,0.551,3.949
				c0.367,1.807,1.002,4.026,1.906,6.659c0.903,2.633,2.847,8.029,5.833,16.188c2.985,8.159,4.891,13.173,5.717,15.04l9.828-27.232
				c2.816-7.715,4.225-12.567,4.225-14.558c0-3.215-1.99-4.99-5.97-5.327c-0.796-0.062-1.194-0.352-1.194-0.873
				c0-0.336,0.145-0.558,0.437-0.665c0.291-0.107,1.14-0.161,2.549-0.161H89.19c1.377,0,2.211,0.039,2.503,0.115
				c0.291,0.076,0.436,0.298,0.436,0.665c0,0.552-0.597,0.919-1.791,1.103c-2.296,0.337-4.018,1.171-5.167,2.503
				c-1.148,1.332-2.25,2.924-3.306,4.776c-1.057,1.853-3.881,9.223-8.473,22.111C71.77,194.075,68.096,203.842,62.371,218.844z"/>
			<path fill="#FFFFFF" d="M117.736,157.26l8.374,0.185l12.837-0.185c1.533,0,2.3,0.307,2.3,0.919c0,0.459-0.413,0.751-1.24,0.872
				c-3.398,0.43-5.519,1.653-6.36,3.674c-0.843,2.021-1.263,9.491-1.263,22.411c0,4.746,0.122,10.088,0.368,16.027
				c0.245,5.939,0.52,9.491,0.827,10.654c0.306,1.163,0.887,2.112,1.745,2.847c0.856,0.735,2.449,1.256,4.776,1.562
				c0.765,0.092,1.148,0.383,1.148,0.873c0,0.551-0.353,0.826-1.058,0.826l-11.412-0.092l-9.708,0.138
				c-1.073,0-1.61-0.306-1.61-0.918c0-0.644,0.428-0.965,1.286-0.965c2.847-0.061,4.516-1.011,5.006-2.848
				c0.489-1.837,0.735-7.699,0.735-17.588c0-9.553-0.085-17.282-0.253-23.191c-0.168-5.908-0.666-9.521-1.492-10.838
				s-2.388-2.143-4.685-2.48c-0.857-0.152-1.286-0.505-1.286-1.056S117.092,157.26,117.736,157.26z"/>
			<path fill="#FFFFFF" d="M194.13,160.245c-2.39-0.122-4.074-0.184-5.055-0.184c-6.617,0-11.411,1.383-14.382,4.148
				c-2.972,2.766-4.702,5.224-5.192,7.374c-0.152,0.769-0.562,1.152-1.231,1.152c-0.305,0-0.594-0.147-0.867-0.442
				c0.153-3.647,0.75-8.567,1.791-14.758c1.47-0.03,2.403-0.046,2.801-0.046c2.388,0,5.587,0.122,9.598,0.367
				c4.317,0.245,10.93,0.367,19.839,0.367c9.123,0,15.063-0.107,17.819-0.321c2.51-0.245,5.953-0.367,10.332-0.367
				c0.367,2.204,0.611,4.5,0.734,6.888c0.184,2.726,0.367,4.639,0.551,5.741c0.031,0.245,0.047,0.505,0.047,0.78
				c0,0.734-0.32,1.103-0.959,1.103c-0.396,0-0.723-0.13-0.98-0.391c-0.26-0.26-0.848-1.125-1.768-2.595
				c-1.592-2.479-3.246-4.354-4.961-5.626c-1.717-1.27-3.631-2.089-5.744-2.457c-2.115-0.367-6.388-0.611-12.82-0.734
				c-0.368,4.623-0.551,9.904-0.551,15.844c0,19.655,0.42,31.243,1.263,34.764c0.842,3.521,3.85,5.281,9.025,5.281
				c1.254,0,1.883,0.261,1.883,0.78c0,0.613-0.598,0.919-1.791,0.919h-28.244c-0.735,0-1.102-0.291-1.102-0.872
				c0-0.582,0.719-0.873,2.158-0.873c2.418,0,4.37-0.681,5.855-2.044c1.484-1.361,2.342-3.206,2.572-5.533
				c0.229-2.326,0.344-9.047,0.344-20.16C195.094,178.86,194.773,169.491,194.13,160.245z"/>
			<path fill="#FFFFFF" d="M304.19,158.271c0.888,3.429,1.76,8.236,2.618,14.42c-0.149,0.245-0.313,0.367-0.491,0.367
				c-0.209,0-0.436-0.122-0.681-0.367c-2.113-3.398-4.136-5.985-6.065-7.761c-1.931-1.775-3.869-3.038-5.814-3.789
				c-1.944-0.75-5.291-1.125-10.04-1.125c-4.474,0-8.013,0.26-10.615,0.779c-0.246,0.306-0.368,0.871-0.368,1.696
				c0,0.214-0.031,0.597-0.092,1.146c-0.307,2.445-0.46,9.077-0.46,19.896c0,0.458,0.03,1.1,0.092,1.925
				c2.329,0.092,3.922,0.138,4.78,0.138c3.86,0,6.656-0.576,8.388-1.729c1.73-1.152,3.24-3.636,4.527-7.451
				c0.212-0.646,0.516-0.968,0.911-0.968c0.577,0,0.865,0.444,0.865,1.334l-0.184,1.841c-0.245,2.424-0.367,4.924-0.367,7.5
				c0,4.172,0.076,7.93,0.229,11.273c0,1.043-0.281,1.564-0.843,1.564c-0.414,0-0.694-0.368-0.842-1.103
				c-0.646-3.612-1.998-6.215-4.056-7.807c-2.059-1.592-6.527-2.389-13.409-2.389c-0.093,2.235-0.139,5.849-0.139,10.838
				c0,6.46,0.229,10.562,0.689,12.308c0.459,1.745,1.562,3.131,3.309,4.156c1.746,1.026,4.702,1.538,8.869,1.538
				c11.917,0,19.605-4.102,23.068-12.308c0.423-1.01,0.862-1.515,1.316-1.515c0.484,0,0.727,0.337,0.727,1.01
				c0,0.367-0.076,0.766-0.229,1.194c-0.184,0.582-0.628,2.755-1.332,6.521c-0.153,0.797-0.734,3.185-1.744,7.164l-19.242-0.046
				c-2.756,0-6.805-0.114-12.146-0.344c-5.343-0.229-10.073-0.352-14.19-0.368c-4.118-0.015-6.269-0.099-6.452-0.252
				s-0.275-0.321-0.275-0.505c0-0.612,0.505-0.919,1.515-0.919c3.398,0,5.633-0.902,6.705-2.707
				c1.071-1.805,1.607-6.195,1.607-13.17l-0.046-9.406l0.138-8.811c0-1.773-0.1-5.131-0.299-10.071s-0.383-7.763-0.551-8.467
				c-0.169-0.703-0.643-1.399-1.424-2.087c-0.78-0.688-2.503-1.385-5.166-2.088c-0.797-0.214-1.194-0.552-1.194-1.011
				c0-0.551,0.535-0.826,1.607-0.826l9.368,0.505c3.307,0.153,11.436,0.229,24.386,0.229
				C299.659,158.225,304.006,158.24,304.19,158.271z"/>
			<path fill="#FFFFFF" d="M352.389,187.248c2.97-1.989,5.312-3.881,7.026-5.672c1.714-1.791,4.4-4.661,8.06-8.61
				c3.658-3.949,5.848-6.574,6.567-7.876c0.719-1.301,1.079-2.242,1.079-2.824c0-0.704-0.406-1.339-1.217-1.905
				c-0.812-0.566-1.769-0.941-2.87-1.125c-1.226-0.185-1.837-0.536-1.837-1.057c0-0.551,0.505-0.827,1.515-0.827
				c0.214,0,0.552-0.015,1.011-0.046c1.132-0.061,4.53-0.092,10.195-0.092c3.888,0,6.597,0.039,8.128,0.115
				c1.53,0.077,2.296,0.36,2.296,0.85c0,0.521-0.429,0.843-1.285,0.964c-2.848,0.398-5.32,1.172-7.417,2.319
				c-2.098,1.148-5.35,3.843-9.759,8.083c-4.408,4.24-8.205,8.351-11.389,12.33c3.542,0,6.521,0.499,8.934,1.495
				c2.412,0.996,4.421,2.714,6.024,5.15c1.603,2.437,2.985,6.567,4.146,12.392c2.028,9.78,5.654,14.885,10.878,15.313
				c1.167,0.09,1.751,0.402,1.751,0.939c0,0.447-0.275,0.67-0.826,0.67l-4.225-0.089c-6.246,0-9.828,0.06-10.746,0.179
				c-1.501-1.989-2.473-3.949-2.916-5.878c-0.444-1.929-1.05-5.312-1.814-10.149c-0.674-4.225-1.784-8.128-3.329-11.71
				c-1.547-3.582-3.958-5.373-7.233-5.373c-2.174,0-4.424,0.712-6.751,2.135c-2.326,1.424-3.674,2.48-4.041,3.169
				c-0.367,0.689-0.551,4.738-0.551,12.146c0,5.205,0.16,8.42,0.482,9.645c0.321,1.225,1.025,2.189,2.112,2.893
				c1.086,0.705,2.549,1.148,4.386,1.332c1.102,0.123,1.653,0.459,1.653,1.011c0,0.521-0.384,0.78-1.148,0.78l-0.551-0.031
				c-0.857-0.04-3.98-0.061-9.368-0.061c-6.491,0-10.165,0.061-11.022,0.184c-0.429,0.062-0.75,0.092-0.964,0.092
				c-0.705,0-1.057-0.275-1.057-0.826c0-0.489,0.429-0.796,1.286-0.919c1.622-0.214,2.839-0.666,3.651-1.354
				c0.811-0.688,1.331-1.484,1.561-2.388c0.23-0.903,0.536-3.927,0.919-9.07s0.574-9.43,0.574-12.858
				c0-4.53-0.046-8.373-0.138-11.526s-0.276-6.591-0.552-10.311s-0.582-5.954-0.918-6.704c-0.338-0.75-0.812-1.332-1.424-1.745
				c-0.612-0.414-2.052-0.758-4.316-1.033c-0.766-0.092-1.148-0.368-1.148-0.827c0-0.673,0.704-1.01,2.112-1.01l3.72-0.046
				l16.303-0.185c0.827,0,1.24,0.256,1.24,0.766c0,0.298-0.138,0.515-0.413,0.648s-1.118,0.291-2.526,0.469
				c-1.439,0.185-2.342,0.36-2.709,0.528c-0.367,0.169-0.735,0.567-1.103,1.194c-0.367,0.628-0.551,1.661-0.551,3.1
				C351.884,167.471,352.052,175.216,352.389,187.248z"/>
		</g>
	</g>
	<g clip-path="url(#SVGID_2_)">
		<defs>
			<rect id="SVGID_3_" x="-116.402" y="-187.268" width="658" height="658"/>
		</defs>
		<clipPath id="SVGID_4_">
			<use xlink:href="#SVGID_3_"  overflow="visible"/>
		</clipPath>
		<g opacity="0.3" clip-path="url(#SVGID_4_)">
			<g>
				<defs>
					<rect id="SVGID_5_" x="134.598" y="300.732" width="165" height="3"/>
				</defs>
				<clipPath id="SVGID_6_">
					<use xlink:href="#SVGID_5_"  overflow="visible"/>
				</clipPath>
				
					<line clip-path="url(#SVGID_6_)" fill="none" stroke="#000000" stroke-width="3" stroke-miterlimit="10" x1="134.598" y1="302.232" x2="299.598" y2="302.232"/>
			</g>
		</g>
		<g opacity="0.3" clip-path="url(#SVGID_4_)">
			<g>
				<defs>
					<rect id="SVGID_7_" x="134.598" y="-21.268" width="165" height="3"/>
				</defs>
				<clipPath id="SVGID_8_">
					<use xlink:href="#SVGID_7_"  overflow="visible"/>
				</clipPath>
				
					<line clip-path="url(#SVGID_8_)" fill="none" stroke="#000000" stroke-width="3" stroke-miterlimit="10" x1="134.598" y1="-19.768" x2="299.598" y2="-19.768"/>
			</g>
		</g>
	</g>
</g>
</svg>
